<?xml version="1.0" encoding="utf-8"?>
<!-- Generator: Adobe Illustrator 21.1.0, SVG Export Plug-In . SVG Version: 6.00 Build 0)  -->
<svg version="1.1" id="Ebene_1" xmlns="http://www.w3.org/2000/svg" xmlns:xlink="http://www.w3.org/1999/xlink" x="0px" y="0px"
	 viewBox="0 0 53 38.2" style="enable-background:new 0 0 53 38.2;" xml:space="preserve">
<style type="text/css">
	.st0{fill:none;stroke:#172844;stroke-width:2;stroke-linecap:round;stroke-linejoin:round;stroke-miterlimit:10;}
	.st1{fill:none;stroke:#C22A18;stroke-width:2;stroke-linecap:round;stroke-linejoin:round;stroke-miterlimit:10;}
	.st2{fill:#A4B0C0;}
</style>
<path class="st0" d="M31,26.6l-3.6-5.6v0l-5.9,2.9l5.9-2.9c-0.5,5-4.8,9-10.1,9c-5.6,0-10.2-4.4-10.2-9.9s4.6-9.9,10.2-9.9
	c1.9,0,3.7,0.5,5.2,1.4"/>
<path class="st1" d="M39.7,32.5l-3.6-5.6v0l-5.9,2.9l5.9-2.9c-0.5,5-4.8,9-10.1,9c-5.6,0-10.2-4.4-10.2-9.9s4.6-9.9,10.2-9.9
	c1.9,0,3.7,0.5,5.2,1.4"/>
<circle class="st2" cx="33.2" cy="9.9" r="1.5"/>
<circle class="st2" cx="29.1" cy="8.8" r="1.5"/>
<circle class="st2" cx="28" cy="12.5" r="1.5"/>
<circle class="st2" cx="30.3" cy="5.2" r="1.5"/>
<circle class="st2" cx="34.2" cy="6.2" r="1.5"/>
<circle class="st2" cx="31.4" cy="1.5" r="1.5"/>
<circle class="st2" cx="38.8" cy="19.1" r="1.5"/>
<circle class="st2" cx="37.7" cy="22.8" r="1.5"/>
<circle class="st2" cx="39.9" cy="15.5" r="1.5"/>
<circle class="st2" cx="41" cy="11.8" r="1.5"/>
<circle class="st2" cx="37" cy="10.7" r="1.5"/>
<circle class="st2" cx="35.9" cy="14.4" r="1.5"/>
<circle class="st2" cx="38.1" cy="7.1" r="1.5"/>
<circle class="st2" cx="39.3" cy="3.4" r="1.5"/>
</svg>
