<?xml version="1.0" encoding="utf-8"?>
<!-- Generator: Adobe Illustrator 21.1.0, SVG Export Plug-In . SVG Version: 6.00 Build 0)  -->
<svg version="1.1" id="Ebene_1" xmlns="http://www.w3.org/2000/svg" xmlns:xlink="http://www.w3.org/1999/xlink" x="0px" y="0px"
	 viewBox="0 0 462 327.5" style="enable-background:new 0 0 462 327.5;" xml:space="preserve">
<style type="text/css">
	.st0{fill:none;stroke:#172844;stroke-width:13;stroke-linecap:round;stroke-linejoin:round;stroke-miterlimit:10;}
	.st1{fill:none;stroke:#C22A18;stroke-width:13;stroke-linecap:round;stroke-linejoin:round;stroke-miterlimit:10;}
	.st2{fill-rule:evenodd;clip-rule:evenodd;fill:none;}
	.st3{fill:#A4B0C0;}
	.st4{fill:#172844;}
	.st5{fill:#5D7090;}
</style>
<path class="st0" d="M165.4,175.1L142,138.7v0l-38.9,18.9l38.9-18.9c-3,33.1-31.7,59-66.5,59c-36.9,0-66.8-29-66.8-64.8
	S38.6,68,75.5,68c12.6,0,24.3,3.4,34.4,9.2"/>
<path class="st1" d="M223.1,213.6l-23.4-36.4v0L160.8,196l38.9-18.9c-3,33.1-31.7,59-66.5,59c-36.9,0-66.8-29-66.8-64.8
	s29.9-64.8,66.8-64.8c12.6,0,24.3,3.4,34.4,9.2"/>
<path class="st2" d="M428.5,233c1.2,0.2,2.5,0.3,3.8,0.5c1.2,1.5,3.1,3.4,1.8,6c-2,5.8-10.4,2.3-8.5-4.3
	C426.5,234.5,427.5,233.7,428.5,233z"/>
<circle class="st3" cx="179.9" cy="65.6" r="9.9"/>
<circle class="st3" cx="153.4" cy="58.4" r="9.9"/>
<circle class="st3" cx="146" cy="82.4" r="9.9"/>
<circle class="st3" cx="160.8" cy="34.4" r="9.9"/>
<circle class="st3" cx="186.9" cy="41.1" r="9.9"/>
<circle class="st3" cx="168.2" cy="10.4" r="9.9"/>
<circle class="st3" cx="216.7" cy="125.9" r="9.9"/>
<circle class="st3" cx="209.3" cy="149.9" r="9.9"/>
<circle class="st3" cx="224.1" cy="101.9" r="9.9"/>
<circle class="st3" cx="231.5" cy="77.9" r="9.9"/>
<circle class="st3" cx="205.2" cy="71" r="9.9"/>
<circle class="st3" cx="197.8" cy="95" r="9.9"/>
<circle class="st3" cx="212.6" cy="47" r="9.9"/>
<circle class="st3" cx="220" cy="23" r="9.9"/>
<path class="st4" d="M246.5,274.6c0-13.3,0-26.5,0-39.7c0.2,0,0.4-0.1,0.7-0.1c4.3,0.1,8.6,0.1,12.9,0.2c5.8,0.2,9.7,3.1,12.3,8.1
	c1.4,2.6,2,5.4,2.2,8.3c0.3,3.6,0.2,7.2-0.7,10.8c-1,3.7-2.8,7-5.8,9.5c-2.1,1.7-4.5,2.7-7.3,2.8c-4.5,0.1-9,0.1-13.5,0.2
	C247,274.6,246.8,274.6,246.5,274.6z M254.4,268c0.2,0,0.4,0.1,0.5,0.1c1.4,0,2.7,0,4.1,0c2.4-0.1,4.2-1.2,5.3-3.3
	c0.7-1.2,1-2.5,1.2-3.9c0.6-4.2,0.6-8.5-0.2-12.7c-0.2-1.2-0.6-2.4-1.2-3.5c-1.2-2.2-3.1-3.4-5.6-3.5c-1.2,0-2.3,0-3.5,0
	c-0.2,0-0.4,0-0.6,0.1C254.4,250.1,254.4,259,254.4,268z"/>
<path class="st4" d="M344.5,235.4c2.6,0,5.2,0,7.8,0c0,0.4,0.1,0.7,0.1,1.1c0,5.1,0,10.1,0,15.2c0,0.3,0,0.7,0,1.1
	c0.5-0.1,0.6-0.5,0.7-0.7c2.7-4.3,5.4-8.7,8.1-13c0.7-1.1,1.3-2.1,2-3.2c0.2-0.3,0.4-0.5,0.8-0.5c2.8,0,5.7,0,8.5,0
	c0.1,0,0.2,0,0.3,0c0,0.1,0,0.1,0,0.1c0,0,0,0.1,0,0.1c0,0.1,0,0.1-0.1,0.2c0,0.1-0.1,0.1-0.1,0.1c-4,5.8-8,11.7-11.9,17.5
	c0,0,0,0.1,0,0.2c4.5,6.9,9.1,13.8,13.6,20.8c-0.7,0.2-9,0.3-10.2,0.1c-3.8-6.6-7.6-13.3-11.6-19.9c-0.1,1.1-0.1,2.2-0.1,3.3
	c0,1.1,0,2.2,0,3.3c0,1.1,0,2.2,0,3.3c0,1.1,0,2.2,0,3.2c0,1.1,0,2.2,0,3.3c0,1.1,0,2.2,0,3.3c-2.7,0-5.3,0-7.9,0
	C344.3,273.8,344.3,236.4,344.5,235.4z"/>
<path class="st4" d="M301.1,266.8c1,1.6,1.9,3,2.9,4.5c-0.2,0.2-0.4,0.4-0.6,0.5c-3.5,2.8-7.4,4-11.8,3.5c-5.5-0.6-9.2-3.7-10.8-8.9
	c-1.5-4.6-1.4-9.3,0.3-13.8c1.3-3.4,3.6-6.1,7.1-7.2c3.9-1.3,7.8-0.9,11.3,1.5c1.8,1.2,2.9,3,3.7,5c0.8,2.2,1.1,4.5,1.2,6.8
	c0,1.2,0,2.4,0,3.8c-2.8,0-5.5,0-8.2,0c-2.7,0-5.4,0-8.1,0c-0.8,3.8,1.9,7.3,5.7,7.3c2.5,0,4.7-0.9,6.6-2.3
	C300.5,267.2,300.8,267,301.1,266.8z M296.6,256.7c0-1.5,0-2.8-0.6-4.1c-0.6-1.4-1.7-2.2-3.3-2.2c-1.6-0.1-2.9,0.5-3.7,1.9
	c-0.6,1.1-0.9,2.2-0.9,3.4c0,0.3,0,0.7,0,1C290.9,256.7,293.7,256.7,296.6,256.7z"/>
<path class="st4" d="M419.8,262.5c-5.5,0-11,0-16.4,0c-0.7,3.2,1.4,6.5,4.5,7c2.6,0.4,4.9-0.3,7.1-1.6c0.5-0.3,1-0.7,1.6-1.1
	c1,1.5,1.9,2.9,2.9,4.5c-1.1,1-2.3,1.7-3.5,2.3c-3.9,1.9-8,2.3-12.1,0.9c-3.5-1.2-5.8-3.6-7.3-6.9c-1.3-3.1-1.5-6.3-1.3-9.6
	c0.2-2,0.5-4,1.4-5.8c2.4-5.1,7-7.7,12.6-7.1c1.5,0.2,3,0.5,4.3,1.2c2.4,1.2,3.9,3.1,4.9,5.6c0.9,2.2,1.2,4.6,1.3,6.9
	C419.8,260,419.8,261.2,419.8,262.5z M412,256.9c0-1.5,0-2.9-0.6-4.1c-1.1-2.3-4.2-2.9-6.1-1.2c-1.6,1.4-1.8,3.4-1.8,5.4
	C406.3,256.9,409.1,256.9,412,256.9z"/>
<path class="st5" d="M171.6,325.4c0.5-1.1,0.9-2,1.4-3c0.3,0.1,0.5,0.1,0.7,0.2c0.7,0.1,1.4,0.4,2.1,0.4c3.3,0.3,5.9-1.7,6.6-5
	c0.3-1.2,0.3-2.5,0-3.7c-0.3-1.3-1-2.4-2.1-3.2c-0.8-0.5-1.6-1-2.4-1.4c-1.2-0.6-2.3-1.2-3.5-1.8c-0.5-0.3-1-0.6-1.4-1
	c-1.6-1.4-1.7-3.4-0.2-4.9c0.6-0.6,1.3-1,2-1.4c0.6-0.4,1.2-0.6,1.8-1c2.5-1.4,3.4-4.3,2.1-6.8c-0.6-1.1-1.4-1.8-2.6-2.2
	c-1.2-0.4-2.5-0.5-3.8-0.2c-1.2,0.3-2.2,1-2.8,2.1c-0.6,1-0.8,2.1-0.9,3.2c-0.1,1-0.1,2.1-0.1,3.2c0,7.5,0,15,0,22.5
	c0,1.5-0.1,2.9-0.6,4.4c-1.6,0.1-3.2,0.1-4.8,0c0.1-0.6,0.2-1.1,0.2-1.6c0.1-1.7,0.2-3.5,0.2-5.2c0-5.3,0-10.6,0-15.9
	c0-0.3,0-0.6,0-0.9c-1.3-0.2-2.6,0-4-0.1c-0.1-1.1,0-2.1,0-3.3c1.4-0.2,2.7,0,4-0.1c0.1-0.8,0.1-1.6,0.2-2.3
	c0.1-0.7,0.1-1.5,0.3-2.2c0.7-3,2.5-5,5.3-6.1c3.6-1.4,7.3-1.3,10.8,0.4c2.7,1.3,4.2,3.5,4.5,6.6c0.2,2.7-0.9,4.8-3.1,6.3
	c-1,0.7-2.1,1.1-3.2,1.6c-0.4,0.2-0.9,0.3-1.2,0.6c-0.8,0.5-0.8,1.1,0,1.6c0.5,0.3,1.1,0.5,1.6,0.8c1.4,0.7,2.9,1.3,4.3,2
	c3.3,1.6,4.9,4.3,5.1,7.9c0.1,2-0.2,3.9-1.1,5.7c-1.3,2.6-3.5,4.1-6.3,4.8c-2.5,0.6-5.1,0.5-7.6-0.1
	C172.3,325.7,172,325.6,171.6,325.4z"/>
<path class="st5" d="M232.6,309.8c-0.3,0-0.6,0-0.9,0c-1.8,0-3.5,0-5.3,0c-0.8,0-0.8,0-1-0.8c-0.2-0.8-0.4-1.7-0.6-2.5
	c0-0.2-0.1-0.4-0.1-0.6c0.8-0.2,12.1-0.2,12.9,0c0,0.3,0,0.6,0,0.9c0,5.3,0,10.5,0,15.8c0,0.7-0.2,1-0.8,1.4
	c-4,2.3-8.3,3.2-12.9,2.7c-7.2-0.8-11.3-6.3-12.7-11.5c-0.8-2.9-0.9-5.8-0.9-8.8c0-2.8,0.4-5.6,1.2-8.2c1.2-3.6,3.1-6.6,6.3-8.8
	c1.8-1.2,3.9-2,6-2.2c4.4-0.5,8.4,0.5,12,3c0.3,0.2,0.6,0.5,0.9,0.8c0.1,0.1,0.2,0.2,0.4,0.4c-0.9,0.9-1.7,1.8-2.6,2.8
	c-0.3-0.2-0.6-0.4-0.8-0.6c-2.1-1.5-4.3-2.4-6.9-2.5c-4-0.2-7.3,1.7-9.1,5.3c-1,2.1-1.7,4.4-1.8,6.7c-0.3,3.4-0.3,6.8,0.3,10.1
	c0.3,1.6,0.8,3,1.5,4.4c1.4,2.8,3.8,4.4,6.7,5.1c2.6,0.6,5.1,0.2,7.6-1c0.4-0.2,0.6-0.4,0.6-0.8c0-3.5,0-6.9,0-10.4
	C232.7,310.3,232.6,310.1,232.6,309.8z"/>
<path class="st5" d="M102,309.7c-0.4,0-0.7,0-1,0c-1.8,0-3.6,0-5.4,0c-0.8,0-0.8,0-1-0.8c-0.2-1-0.5-1.9-0.7-2.9
	c0.7-0.2,12-0.2,13.1-0.1c0,0.2,0.1,0.5,0.1,0.7c0,5.2,0,10.4,0,15.6c0,0.5-0.2,0.8-0.6,1.1c-5.1,2.9-10.4,3.6-16,2.1
	c-4.9-1.4-8-4.8-9.8-9.5c-0.7-1.9-1-3.8-1.1-5.8c-0.2-2.9-0.2-5.9,0.3-8.8c0.6-3.3,1.8-6.3,4.1-8.9c3-3.4,6.9-5,11.5-5
	c3.6,0,6.9,1,9.9,3c0.5,0.3,0.9,0.7,1.3,1c-0.9,0.9-1.8,1.7-2.8,2.7c-0.1-0.1-0.4-0.2-0.6-0.4c-2.6-1.8-5.4-2.7-8.5-2.4
	c-3.6,0.3-6.1,2.1-7.7,5.3c-1,2-1.6,4.1-1.8,6.4c-0.2,3.2-0.3,6.4,0.3,9.6c0.3,1.5,0.8,2.9,1.4,4.3c1.2,2.4,3.1,3.9,5.6,4.7
	c3.1,1,6.1,0.8,9.1-0.6c0.4-0.2,0.6-0.4,0.6-0.8c0-3.4,0-6.7,0-10.1C102.1,310.2,102.1,310,102,309.7z"/>
<path class="st4" d="M460.6,247.6c-0.8,1.7-1.6,3.3-2.4,5c-0.6-0.3-1.2-0.5-1.7-0.8c-1.8-0.8-3.6-1.3-5.5-1.3
	c-0.8,0-1.5,0.2-2.2,0.6c-0.8,0.5-1.2,1.2-1.2,2.2c0,0.8,0.3,1.5,1,1.9c0.6,0.4,1.3,0.7,2,0.9c1.6,0.5,3.1,0.8,4.7,1.3
	c0.7,0.2,1.4,0.4,2.1,0.8c2.8,1.3,4.3,3.6,4.4,6.7c0.2,4.4-2.1,7.9-6.3,9.5c-3.3,1.3-6.6,1.3-10,0.6c-2.4-0.5-4.7-1.4-6.9-2.6
	c-0.1-0.1-0.3-0.2-0.5-0.3c0.9-1.8,1.8-3.6,2.7-5.5c0.6,0.3,1.1,0.6,1.6,0.9c1.9,1,3.9,1.8,6,2.2c0.6,0.1,1.1,0.2,1.7,0.2
	c1.1,0.1,2-0.2,2.9-0.9c1.7-1.4,1.5-3.9-0.4-4.9c-1.1-0.6-2.4-0.8-3.7-1.1c-0.7-0.1-1.5-0.3-2.2-0.4c-1.6-0.3-3-0.9-4.3-1.8
	c-1.5-1-2.3-2.4-2.7-4.1c-1.1-4.7,1.2-9,5.6-10.8c2.8-1.1,5.6-1.1,8.5-0.6c2.3,0.4,4.5,1.2,6.6,2.3
	C460.4,247.5,460.4,247.5,460.6,247.6z"/>
<path class="st5" d="M313.2,324.2c-0.8,1-1.6,2.1-2.4,3.1c-1.8-0.8-3.1-1.9-3.9-3.9c-0.3,0.3-0.5,0.5-0.7,0.7
	c-1.5,1.4-3.3,2.5-5.4,2.7c-1.9,0.2-3.7,0.1-5.5-0.5c-2.1-0.7-3.6-2.2-4.4-4.3c-1.2-3.3-0.7-7.8,3.1-10.5c1.5-1.1,3.3-1.7,5.1-2.1
	c2.1-0.5,4.2-0.6,6.3-0.5c0.3,0,0.6,0,1,0c0.1-0.1,0.1-0.2,0.1-0.3c0-1.3,0-2.6-0.1-3.9c-0.2-3-2.3-3.8-4.5-3.7
	c-2.9,0.1-5.5,1.1-7.8,2.8c-0.1,0.1-0.2,0.1-0.4,0.2c-0.8-1-1.5-2-2.3-3.1c0.2-0.2,0.4-0.3,0.6-0.4c3.7-2.3,7.7-3.5,12.1-3.2
	c1.1,0.1,2.1,0.3,3.1,0.7c2.2,1,3.6,2.7,3.9,5.1c0.2,1.3,0.3,2.6,0.3,3.9c0,3.9-0.2,7.7-0.2,11.6c0,0.8,0,1.6,0.1,2.4
	c0.1,1.2,0.6,2,1.6,2.7c0.1,0.1,0.2,0.1,0.3,0.2C313.1,324.1,313.1,324.1,313.2,324.2z M306.4,312.2c-0.9,0-1.7-0.1-2.5-0.1
	c-1.6,0-3.1,0.3-4.6,0.9c-1.8,0.8-3.1,2.1-3.4,4.2c-0.1,0.8-0.1,1.7-0.1,2.5c0.3,2.6,2,4,4.6,3.9c2.4-0.1,4.2-1.3,5.5-3.3
	c0.3-0.4,0.4-0.9,0.4-1.4c0-1.9,0.1-3.8,0.1-5.7C306.4,312.8,306.4,312.6,306.4,312.2z"/>
<path class="st5" d="M143.7,326.4c-0.4,0-0.9,0-1.3-0.1c-4.8-0.4-8.1-2.9-9.7-7.4c-1.4-3.7-1.5-7.6-0.7-11.4
	c0.3-1.7,0.9-3.4,1.9-4.9c1.5-2.5,3.7-4.1,6.5-4.7c2.2-0.5,4.5-0.5,6.7,0.1c3.6,0.9,6,3.3,7.3,6.7c1.8,4.6,1.9,9.4,0.3,14.1
	C153.1,323.8,149.2,326.4,143.7,326.4z M150.1,312.4c0-0.9,0.1-1.7,0-2.6c-0.1-1.4-0.3-2.8-0.6-4.1c-0.7-2.8-2.5-4.3-5.2-4.7
	c-3.1-0.4-5.6,1.2-6.6,4.1c-0.1,0.4-0.2,0.8-0.3,1.2c-0.6,2.9-0.6,5.9-0.3,8.8c0.2,1.4,0.4,2.8,0.9,4.2c0.3,0.8,0.7,1.5,1.4,2
	c3.5,3.1,8.9,1.4,10.1-3C150.1,316.4,150.1,314.4,150.1,312.4z"/>
<path class="st5" d="M266.7,313c-5.6,0-11.1,0-16.6,0c-0.1,0.2-0.2,0.2-0.2,0.3c0,1.6,0,3.2,0.4,4.8c0.8,2.8,2.6,4.5,5.4,5
	c2.8,0.5,5.4-0.2,7.7-1.9c0.2-0.2,0.4-0.3,0.6-0.5c0,0,0.1,0,0.1,0c0.5,0.4,1.5,1.8,1.9,2.6c-0.8,0.8-1.7,1.4-2.8,1.9
	c-3.4,1.7-6.9,2.1-10.5,1c-3.1-0.9-5.2-2.9-6.6-5.8c-1.2-2.5-1.6-5.1-1.7-7.8c-0.1-2.7,0.1-5.4,1-7.9c1.1-2.9,2.8-5.1,5.6-6.5
	c3.7-1.8,10.4-1.8,13.9,3.8c0.8,1.3,1.3,2.7,1.4,4.2c0.2,2,0.3,4.1,0.4,6.1C266.8,312.6,266.7,312.7,266.7,313z M249.9,309.6
	c0.9,0.2,11,0.2,11.7,0c-0.1-1.9-0.1-3.8-0.7-5.6c-0.6-1.8-1.9-2.8-3.7-3.1c-0.7-0.1-1.4-0.1-2-0.1c-1.4,0.1-2.5,0.8-3.4,1.9
	c-0.1,0.2-0.3,0.4-0.4,0.6C250.2,305.2,250,307.4,249.9,309.6z"/>
<path class="st5" d="M320.8,298.1c1.6-0.2,3.1-0.4,4.7-0.7c0,0.4,0,0.8,0,1.1c0,6.4,0,12.8,0,19.2c0,0.9,0.1,1.8,0.2,2.6
	c0.2,1.7,1.3,2.7,3,3.1c2.3,0.5,4.3-0.1,6-1.7c0.2-0.2,0.4-0.4,0.5-0.6c1-1.1,1.5-2.3,1.5-3.9c-0.1-6,0-12,0-18c0-0.3,0-0.7,0-1.1
	c1.6-0.2,3.1-0.4,4.7-0.6c0,0.4,0,0.7,0,1.1c0,6.3,0,12.6,0,18.9c0,1,0.1,2,0.1,3c0.1,1.2,0.5,2.4,1.3,3.4c0.1,0.1,0.2,0.3,0.4,0.6
	c-1.1,0.9-2.2,1.9-3.4,2.8c-1.3-1-2.3-2.2-2.5-4c-0.3,0.2-0.4,0.3-0.5,0.4c-2.4,2.7-5.4,3.6-8.8,3.4c-0.7,0-1.3-0.1-1.9-0.3
	c-2.8-0.7-4.6-2.5-5.1-5.3c-0.2-1-0.3-2.1-0.3-3.1c0-6.5,0-13,0-19.5C320.7,298.8,320.8,298.5,320.8,298.1z"/>
<path class="st4" d="M317.7,274.6c-2.5,0-4.9,0-7.4,0c0-0.4-0.1-0.7-0.1-1c0-6,0-12.1,0-18.1c0-2.5-0.1-5-0.6-7.5
	c-0.1-0.5-0.2-1-0.4-1.6c2.2-0.6,4.3-1.2,6.6-1.8c0.8,1.2,1,2.5,1.3,4c0.2-0.2,0.4-0.3,0.5-0.5c0.9-1,1.8-2,3-2.6
	c1.7-0.9,3.4-1.2,5.3-0.5c0.1,0,0.2,0.1,0.3,0.1c0.1,0,0.1,0.1,0.3,0.2c-0.7,2.2-1.3,4.4-2,6.6c-0.2-0.1-0.3-0.1-0.4-0.1
	c-2.1-0.9-4.5-0.1-6.1,1.8c-0.2,0.2-0.2,0.7-0.2,1c0,3.2,0,6.5,0,9.7c0,3,0,6.1,0,9.1C317.7,273.9,317.7,274.2,317.7,274.6z"/>
<path class="st4" d="M392,252.2c-0.3-0.1-0.5-0.2-0.7-0.2c-2.1-0.7-4.3,0.1-5.8,2c-0.2,0.2-0.2,0.6-0.2,1c0,4.2,0,8.4,0,12.6
	c0,2,0,4,0,6c0,0.3,0,0.6,0,0.9c-0.7,0.2-6.2,0.3-7.5,0.1c0-0.3,0-0.6,0-1c0-5.9,0-11.8,0-17.8c0-2.5-0.1-5-0.6-7.4
	c-0.1-0.5-0.2-0.9-0.4-1.5c2.2-0.7,4.4-1.2,6.6-1.8c0.8,1.2,1,2.5,1.2,3.9c0.3-0.3,0.4-0.5,0.6-0.6c1.1-1.2,2.3-2.3,3.8-2.9
	c1.4-0.5,2.8-0.6,4.3-0.2c0.3,0.1,0.5,0.2,0.8,0.4C393.4,247.8,392.7,250,392,252.2z"/>
<path class="st4" d="M425.8,274.5c0-9.5,0-18.8,0-28.3c2.5-0.4,4.9-0.8,7.4-1.2c0,9.9,0,19.7,0,29.5
	C430.7,274.5,428.3,274.5,425.8,274.5z"/>
<path class="st5" d="M288.1,297.5c-0.7,1.7-1.3,3.2-1.9,4.7c-0.3,0-0.5-0.1-0.8-0.1c-2.2-0.4-4.5,0.7-5.6,2.6c-0.6,0.9-0.7,2-0.7,3
	c0,4.2,0,8.4,0,12.6c0,1.7,0,3.4,0,5c0,0.3,0,0.6,0,0.9c-1.6,0-3.2,0-4.8,0c0-0.4,0-0.7,0-1c0-6,0-11.9,0-17.9
	c0-3.9,0.2-4.5-0.9-8.9c1.5-0.5,3.1-0.7,4.7-1.1c0.7,1.2,0.9,2.4,1,4c1.3-1.7,2.6-3,4.4-3.6c1.1-0.4,2.2-0.5,3.4-0.4
	C287,297.3,287.5,297.4,288.1,297.5z"/>
<path class="st5" d="M115,298.7c0.3-0.1,0.7-0.2,1-0.3c1.2-0.3,2.4-0.5,3.6-0.8c0.6,0.8,0.8,1.3,1.1,3.7c0.2-0.2,0.3-0.3,0.4-0.4
	c1.9-2.4,4.3-3.5,7.4-3.4c0.5,0,0.9,0.2,1.5,0.3c-0.6,1.6-1.3,3.1-1.9,4.6c-0.3,0-0.5,0-0.7-0.1c-1.7-0.3-3.2,0.1-4.6,1.2
	c-1.2,0.9-1.9,2.2-1.9,3.7c0,0.8,0,1.5,0,2.3c0,5,0,10,0,15c0,0.3,0,0.7,0,1.1c-1.7,0-3.2,0-5,0c0-0.4,0-0.7,0-1
	c0-6.3,0-12.5,0-18.8c0-2.3-0.1-4.5-0.9-6.7C115,299,115,298.8,115,298.7z"/>
<path class="st4" d="M429.4,242.4c-2.6,0-4.6-2.1-4.6-4.7c0-2.6,2.1-4.6,4.7-4.6c2.5,0,4.5,2.1,4.5,4.7
	C434.1,240.3,432,242.4,429.4,242.4z"/>
<path class="st5" d="M204.5,309.1c0,1.4,0,2.6,0,3.9c-3.7,0-7.3,0-10.9,0c-0.2-0.7-0.2-3.1,0-3.9
	C197.2,309.1,200.8,309.1,204.5,309.1z"/>
</svg>
